# xmcd
#
# Track frame offsets:
#	150
#	15667
#	30633
#	46041
#	65212
#	81373
#	101240
#	118041
#	137908
#	154603
#	173105
#
# Disc length: 2472 seconds
#
# Revision: 1
# Processed by: cddbd v1.5.2PL0 Copyright (c) Steve Scherf et al.
# Submitted via: audiograbber 1.83.01
#
DISCID=9109a60b
DTITLE=Reto Burrell - Shaking Off Monkeys
DYEAR=2002
DGENRE=Rock
TTITLE0=Hey You
TTITLE1=It Doesn't Mean A Thing
TTITLE2=Baby Blue
TTITLE3=Simple Things
TTITLE4=Mr. Sorry
TTITLE5=Take Me Away
TTITLE6=Habits
TTITLE7=Oberboard
TTITLE8=Back Home
TTITLE9=Take It Or Leave It
TTITLE10=Amy, Amy
EXTD=
EXTT0=
EXTT1=
EXTT2=
EXTT3=
EXTT4=
EXTT5=
EXTT6=
EXTT7=
EXTT8=
EXTT9=
EXTT10=
PLAYORDER=
